<?xml version="1.0" encoding="UTF-8" standalone="no"?>
<svg
   xmlns:dc="http://purl.org/dc/elements/1.1/"
   xmlns:cc="http://creativecommons.org/ns#"
   xmlns:rdf="http://www.w3.org/1999/02/22-rdf-syntax-ns#"
   xmlns:svg="http://www.w3.org/2000/svg"
   xmlns="http://www.w3.org/2000/svg"
   viewBox="0 0 960 227"
   height="227"
   width="960"
   id="svg2"
   version="1.1">
  <metadata
     id="metadata8">
    <rdf:RDF>
      <cc:Work
         rdf:about="">
        <dc:format>image/svg+xml</dc:format>
        <dc:type
           rdf:resource="http://purl.org/dc/dcmitype/StillImage" />
        <dc:title></dc:title>
      </cc:Work>
    </rdf:RDF>
  </metadata>
  <defs
     id="defs6" />
  <path
     id="path823"
     d="m 217.18519,207.14814 c -2.00174,-2.00173 -0.42845,-3.06081 3.83333,-2.58044 3.67973,0.41476 4.5,0.21379 4.5,-1.10251 0,-0.88535 -1.7445,-2.49971 -3.87667,-3.58746 -4.53501,-2.31359 -5.4949,-4.1533 -3.94355,-7.55815 1.75202,-3.84526 10.92177,-4.93154 11.6067,-1.37497 0.24297,1.26165 -0.49928,1.58142 -3.45515,1.48852 -5.42123,-0.17039 -5.62501,2.49456 -0.37188,4.86339 2.2223,1.00212 4.04055,2.16689 4.04055,2.58838 0,0.42148 0.25979,1.44335 0.57732,2.2708 1.02812,2.67924 -3.13734,5.65911 -7.91065,5.65911 -2.38334,0 -4.63334,-0.3 -5,-0.66667 z m 29.96969,-1.96969 c -3.47331,-3.47332 -3.60763,-9.12294 -0.3081,-12.95888 1.83581,-2.13425 3.25698,-2.7277 6.71913,-2.80576 3.257,-0.0734 4.47404,0.30987 4.71296,1.48433 0.24035,1.18145 -0.48938,1.58334 -2.87496,1.58334 -4.1204,0 -7.27696,3.59008 -6.39219,7.2701 0.8264,3.43724 3.41236,5.27419 6.7568,4.79974 2.1388,-0.30342 2.75,0.0159 2.75,1.43668 0,1.48998 -0.80457,1.82681 -4.36364,1.82681 -3.3814,0 -4.95707,-0.59343 -7,-2.63636 z m 27.36364,-6.86364 c 0,-8.83333 0.14035,-9.5 2,-9.5 1.85965,0 2,0.66667 2,9.5 0,8.83333 -0.14035,9.5 -2,9.5 -1.85965,0 -2,-0.66667 -2,-9.5 z m 22.69648,7.09452 c -3.89308,-3.60799 -3.79291,-9.65194 0.2266,-13.67144 5.31256,-5.31257 12.56025,-3.02986 13.73818,4.32692 l 0.60042,3.75 h -6.63084 c -7.01764,0 -7.83225,0.60277 -4.67545,3.45963 1.35197,1.22351 3.06017,1.64062 5.53545,1.35165 2.83305,-0.33075 3.51862,-0.0938 3.28562,1.13538 -0.20426,1.07756 -1.68643,1.64424 -4.83897,1.85011 -3.70599,0.24201 -5.04206,-0.16434 -7.24101,-2.20225 z m 10.30352,-9.40339 c 0,-0.44488 -0.59224,-1.61881 -1.3161,-2.60874 -1.65919,-2.26908 -4.49992,-1.75375 -6.43639,1.16761 -1.47417,2.22392 -1.43788,2.25 3.13052,2.25 2.54208,0 4.62197,-0.36399 4.62197,-0.80887 z m 19,2.30887 c 0,-8.83333 0.14035,-9.5 2,-9.5 1.11111,0 2,0.66667 2,1.5 0,0.825 0.3949,1.5 0.87756,1.5 0.48265,0 1.43775,-0.675 2.12244,-1.5 0.68469,-0.825 2.51427,-1.5 4.06574,-1.5 4.33286,0 5.93426,3.16339 5.93426,11.72251 0,7.09599 -0.0623,7.27749 -2.5,7.27749 -2.42737,0 -2.5,-0.20235 -2.5,-6.96482 0,-5.76911 -0.31964,-7.13588 -1.86186,-7.96125 -3.48764,-1.86653 -5.47885,0.91308 -5.94954,8.30518 -0.36095,5.6685 -0.69253,6.62089 -2.3051,6.62089 -1.71249,0 -1.8835,-0.86253 -1.8835,-9.5 z m 35.45225,6.85398 c -3.2733,-3.53196 -3.32781,-9.22455 -0.12399,-12.94922 1.83581,-2.13425 3.25698,-2.7277 6.71913,-2.80576 3.257,-0.0734 4.47404,0.30987 4.71296,1.48433 0.23847,1.17224 -0.47989,1.58334 -2.76674,1.58334 -3.96719,0 -6.32694,2.39717 -6.32694,6.42726 0,3.86397 2.71535,6.1913 6.58333,5.64258 2.1388,-0.30342 2.75,0.0159 2.75,1.43668 0,1.50128 -0.81039,1.82681 -4.54775,1.82681 -3.63334,0 -5.04082,-0.53203 -7,-2.64602 z m 29.05672,0.2459 c -6.91858,-6.91858 0.88536,-19.45568 9.94623,-15.9787 1.95449,0.75001 4.5448,5.49721 4.5448,8.32916 0,1.85986 -0.61319,2.04966 -6.62197,2.04966 h -6.62197 l 1.50505,2.25 c 1.15665,1.72915 2.4642,2.25 5.64845,2.25 3.14323,0 4.07449,0.36208 3.85792,1.5 -0.19545,1.02699 -1.77768,1.596 -5.0175,1.80442 -3.95128,0.2542 -5.14601,-0.10954 -7.24101,-2.20454 z m 10.49103,-9.40875 c 0,-0.44488 -0.60498,-1.63624 -1.34441,-2.64746 -1.72019,-2.3525 -6.19282,-1.42132 -6.94248,1.44539 -0.46807,1.7899 -0.0415,2.01094 3.88051,2.01094 2.42351,0 4.40638,-0.36399 4.40638,-0.80887 z m 43,4.30887 c 0,-6 -0.3,-7.5 -1.5,-7.5 -0.83333,0 -1.5,-0.88889 -1.5,-2 0,-1.1 0.62622,-2 1.39159,-2 0.76538,0 1.70044,-1.2375 2.07791,-2.75 0.99179,-3.97399 3.42639,-6.25 6.68549,-6.25 2.20553,0 2.84501,0.46281 2.84501,2.05902 0,1.17564 -0.44782,1.78224 -1.0438,1.41391 -1.46192,-0.90352 -3.9562,1.39741 -3.9562,3.64951 0,1.21089 0.71014,1.87756 2,1.87756 1.33333,0 2,0.66667 2,2 0,1.33333 -0.66667,2 -2,2 -1.82222,0 -2,0.66667 -2,7.5 0,7.33333 -0.0556,7.5 -2.5,7.5 -2.44444,0 -2.5,-0.16667 -2.5,-7.5 z m 25.63636,4.86364 c -5.20785,-5.20786 -2.37295,-14.57202 4.82003,-15.92144 6.46975,-1.21373 11.54361,2.43976 11.54361,8.3121 0,6.60226 -3.35384,10.1655 -9.61364,10.2139 -3.13747,0.0242 -4.73924,-0.59381 -6.75,-2.60456 z m 9.5999,-1.61364 c 3.15117,-2.43369 2.6487,-9.46304 -0.76933,-10.76257 -5.25488,-1.9979 -9.35071,4.48862 -6.03226,9.55321 1.76684,2.69654 4.29412,3.14591 6.80159,1.20936 z m 22.76374,-5.25 c 0,-8.83333 0.14035,-9.5 2,-9.5 1.38678,0 2,0.66667 2,2.17431 v 2.17432 l 2.31445,-2.17432 c 2.88844,-2.71354 4.68555,-2.7804 4.68555,-0.17431 0,1.28986 -0.66667,2 -1.87756,2 -2.94311,0 -4.26073,2.43353 -4.85277,8.96264 -0.4556,5.02441 -0.85971,6.03736 -2.40856,6.03736 -1.68421,0 -1.86111,-0.90298 -1.86111,-9.5 z m 48,-4.5 c 0,-13.33333 0.0952,-14 2,-14 1.77778,0 2,0.66667 2,6 0,6.08423 0.75069,7.21026 3,4.5 1.5665,-1.88751 5.03191,-1.92837 7.54741,-0.089 1.56724,1.14599 1.99867,2.93032 2.29702,9.5 l 0.36734,8.08899 h -2.60588 c -2.55842,1e-5 -2.60589,-0.12687 -2.60589,-6.96481 0,-6.06932 -0.27215,-7.11046 -2.11666,-8.09762 -3.3952,-1.81705 -5.21532,0.91234 -5.70165,8.54997 -0.35434,5.56476 -0.68877,6.51247 -2.29819,6.51247 -1.75498,0 -1.8835,-0.9553 -1.8835,-14 z m 34.69648,11.59452 c -3.89308,-3.60799 -3.79291,-9.65194 0.2266,-13.67144 5.31256,-5.31257 12.56025,-3.02986 13.73818,4.32692 l 0.60042,3.75 h -6.63084 c -7.01764,0 -7.83225,0.60277 -4.67545,3.45963 1.35197,1.22351 3.06017,1.64062 5.53545,1.35165 2.83305,-0.33075 3.51862,-0.0938 3.28562,1.13538 -0.20426,1.07756 -1.68643,1.64424 -4.83897,1.85011 -3.70599,0.24201 -5.04206,-0.16434 -7.24101,-2.20225 z m 10.30352,-9.40339 c 0,-0.44488 -0.59224,-1.61881 -1.3161,-2.60874 -1.65919,-2.26908 -4.49992,-1.75375 -6.43639,1.16761 -1.47417,2.22392 -1.43788,2.25 3.13052,2.25 2.54208,0 4.62197,-0.36399 4.62197,-0.80887 z m 19.2,10.60887 c -3.25443,-3.25443 -0.009,-9.7844 4.87874,-9.81531 1.33169,-0.008 3.06732,-0.42413 3.85696,-0.92379 1.18984,-0.7529 1.21168,-1.17839 0.12755,-2.48468 -1.5072,-1.81607 -4.34426,-2.03138 -7.12899,-0.54104 -1.51276,0.80961 -1.93426,0.70832 -1.93426,-0.46481 0,-3.6265 9.4451,-4.946 12.35868,-1.72653 1.4615,1.61494 2.24959,8.84895 1.73285,15.90616 -0.1356,1.85182 -4.09153,1.54105 -4.09153,-0.32143 0,-1.42857 -0.14286,-1.42857 -1.57143,0 -1.85966,1.85966 -6.52955,2.07045 -8.22857,0.37143 z m 8.6,-3 c 1.89347,-1.89347 1.45857,-4.8 -0.71821,-4.8 -3.16304,0 -5.08179,1.11019 -5.08179,2.94032 0,3.15169 3.4135,4.24618 5.8,1.85968 z m 22.2,-9.8 c 0,-13.33333 0.0952,-14 2,-14 1.90476,0 2,0.66667 2,14 0,13.33333 -0.0952,14 -2,14 -1.90476,0 -2,-0.66667 -2,-14 z m 24.05175,13.05315 c -0.94206,-0.59599 -1.59443,-3.21203 -1.86649,-7.48469 -0.30084,-4.72461 -0.80662,-6.56846 -1.80176,-6.56846 -0.76092,0 -1.3835,-0.9 -1.3835,-2 0,-1.11111 0.66667,-2 1.5,-2 0.825,0 1.5,-0.85186 1.5,-1.89301 0,-1.73494 1.80252,-3.10699 4.08179,-3.10699 0.50501,0 0.91821,1.125 0.91821,2.5 0,1.83333 0.53333,2.5 2,2.5 1.33333,0 2,0.66667 2,2 0,1.33333 -0.66667,2 -2,2 -1.76163,0 -2,0.66667 -2,5.59362 0,4.75262 0.3007,5.67225 2,6.11663 3.04259,0.79566 2.47072,3.29237 -0.75,3.27444 -1.5125,-0.008 -3.40171,-0.42762 -4.19825,-0.93154 z m 21.94825,-13.05315 c 0,-13.33333 0.0952,-14 2,-14 1.77985,0 2,0.66667 2,6.05654 v 6.05653 l 2.87264,-1.69691 c 3.73922,-2.20881 7.86826,-1.22784 9.16273,2.17687 0.53055,1.39544 0.96463,5.43287 0.96463,8.97207 0,6.19723 -0.0923,6.4349 -2.5,6.4349 -2.42433,0 -2.5,-0.20816 -2.5,-6.87756 0,-7.27846 -1.27794,-9.72049 -4.44986,-8.50331 -2.31239,0.88735 -3.55014,4.5293 -3.55014,10.44597 0,4.26823 -0.27018,4.9349 -2,4.9349 -1.90476,0 -2,-0.66667 -2,-14 z m 44.79329,-38.75 c -0.34535,-51.06436 -0.38008,-51.82538 -2.62092,-57.439672 -5.22498,-13.09088 -17.72155,-17.17963 -31.66166,-10.35937 -6.16378,3.01566 -10.23202,8.01443 -12.88642,15.833992 -1.3588,4.00284 -1.62429,9.76448 -1.62429,35.25 v 30.46505 h -7 -7 l -0.0258,-36.25 c -0.0232,-32.583402 -0.90791,-52.815052 -2.53355,-57.937002 -0.51801,-1.6321 0.11891,-1.813 6.38343,-1.813 h 6.95885 l 1.28103,6.44483 1.28102,6.44483 3.76929,-4.28214 c 7.18792,-8.1659 21.2665,-12.16998 33.98941,-9.6669 11.18578,2.20067 19.30551,9.57766 23.13366,21.01756 2.12407,6.34749 2.19948,8.138552 2.53854,60.291822 l 0.34943,53.75 h -6.99101 -6.99101 z m -461.79329,27.75 c 0,-1.64634 0.51831,-2.06549 2.25,-1.81955 1.2375,0.17575 2.25,0.99455 2.25,1.81955 0,0.825 -1.0125,1.6438 -2.25,1.81955 -1.73169,0.24594 -2.25,-0.17321 -2.25,-1.81955 z m 174.5,-12.03407 c -6.33683,-1.29104 -10.66338,-3.47736 -15.76102,-7.96448 l -4.73898,-4.17142 v 5.08498 5.08499 h -7 -7 v -70.500002 -70.5 h 7 7 v 29.68 29.68 l 3.55402,-4.15207 c 2.26376,-2.64469 6.32915,-5.52362 11.19813,-7.93 7.31368,-3.61461 8.07957,-3.77793 17.71701,-3.77793 9.36653,0 10.54107,0.23049 16.74923,3.28675 10.60772,5.22217 17.61556,14.70865 20.84165,28.213252 1.70522,7.13814 1.73398,24.98021 0.0516,32 -2.31597,9.66341 -7.7814,19.47885 -14.10729,25.33551 -6.8565,6.3479 -12.60309,9.23138 -21.16708,10.62105 -7.14666,1.15967 -8.68624,1.16068 -14.33725,0.009 z m 15.88398,-13.17683 c 6.05028,-1.77995 14.70927,-10.74966 17.45077,-18.07697 6.5647,-17.54574 3.48226,-40.958542 -6.55241,-49.769092 -5.21896,-4.58231 -9.23633,-5.94435 -17.50022,-5.93327 -9.02689,0.0121 -15.58125,2.78977 -21.14479,8.96091 -6.79123,7.532902 -8.04886,11.629442 -8.45141,27.529322 -0.3115,12.30387 -0.10096,14.67595 1.73782,19.57935 5.59641,14.9237 19.55189,22.09567 34.46024,17.70975 z m 130.11602,13.11074 c -8.27394,-1.18079 -19.58993,-7.06139 -24.66854,-12.81954 -17.27674,-19.58842 -16.67138,-55.76477 1.2376,-73.958472 13.32453,-13.53636 36.34477,-17.02168 54.93094,-8.31668 17.03977,7.98073 26.61707,30.753952 23.00493,54.701872 -3.35725,22.25806 -15.83291,36.26045 -35.69225,40.06017 -8.20289,1.56947 -9.93192,1.60005 -18.81268,0.33265 z m 18.30718,-13.06579 c 9.09335,-2.25927 14.76111,-7.33928 19.34081,-17.33516 2.03971,-4.45197 2.29041,-6.5306 2.29141,-18.99889 0.001,-15.826 -1.59652,-21.775042 -7.69709,-28.658292 -5.80212,-6.54653 -10.7013,-8.34244 -22.74231,-8.33673 -8.87026,0.004 -11.12085,0.34161 -14.5,2.17382 -8.65741,4.69414 -14.31479,12.69632 -16.63949,23.536022 -1.51223,7.05129 -0.53973,23.04018 1.78123,29.28518 2.621,7.0523 11.4868,15.86975 17.95262,17.8547 6.00714,1.84415 13.9605,2.03276 20.21282,0.47935 z m 237.69282,13.51137 c -17.91784,-2.64483 -30.63313,-14.14347 -36.23959,-32.77206 -1.89853,-6.30824 -2.07225,-22.13544 -0.32461,-29.57336 3.09456,-13.170352 11.55903,-25.035982 22.43774,-31.453602 11.63712,-6.86503 29.11273,-8.32957 41.97383,-3.51762 l 5.65263,2.11492 v 6.94157 6.94157 l -3.75,-1.6289 c -10.8646,-4.71932 -22.81039,-5.78927 -31.51639,-2.82283 -5.66017,1.92861 -12.88953,8.12845 -16.33624,14.00979 -5.80772,9.910132 -7.15303,25.979362 -3.19342,38.144102 2.80352,8.61296 10.60876,17.00535 18.22419,19.5951 8.68311,2.95284 19.57785,1.86327 30.73996,-3.07426 l 4.65779,-2.06036 0.33705,5.5045 c 0.37697,6.15627 0.35903,6.20292 -3.27306,8.51052 -5.57413,3.54144 -21.43278,6.31546 -29.38988,5.14092 z M 51.518519,120.81481 V 72.814808 h 7 7 v 48.000002 48 h -7 -7 z m 42.999999,0 V 72.814808 h 7.000002 7 v 5.61765 5.61765 l 3.88092,-3.88092 c 6.68789,-6.68789 12.19447,-8.83348 22.61908,-8.81334 6.82266,0.0132 9.84674,0.46684 12.5,1.87519 6.49641,3.4483 10.87078,7.63383 13.28334,12.70993 l 2.40064,5.05099 1.30319,-3.14617 c 1.90118,-4.58985 8.76954,-11.22108 14.51283,-14.01176 4.15863,-2.02069 6.51446,-2.4303 14,-2.43422 11.17448,-0.006 17.65854,2.51609 23.48371,9.13383 7.57842,8.60955 8.94283,17.49731 8.98541,58.531172 l 0.0309,29.75 h -6.91997 -6.91996 l -0.41653,-34.25 c -0.44234,-36.373122 -0.79296,-39.278412 -5.40109,-44.754862 -3.7471,-4.45318 -7.43347,-5.99514 -14.33263,-5.99514 -9.57172,0 -16.10384,4.33206 -20.93441,13.88353 -3.43282,6.787722 -4.07541,13.515012 -4.07541,42.665692 v 28.45078 h -7 -7 v -32.8185 c 0,-36.340712 -0.51487,-40.281502 -6.09291,-46.634532 -3.51204,-3.99999 -8.09057,-5.75302 -14.88816,-5.70036 -8.72637,0.0676 -15.88196,5.37581 -20.42709,15.15339 -1.96503,4.227212 -2.11075,6.485332 -2.40379,37.250002 l -0.31194,32.75 h -6.93806 -6.938052 z m 160.000002,0 V 72.814808 h 7 7 v 5.61765 5.61765 l 3.88092,-3.88092 c 6.68789,-6.68789 12.19447,-8.83348 22.61908,-8.81334 6.82266,0.0132 9.84674,0.46684 12.5,1.87519 6.49641,3.4483 10.87078,7.63383 13.28334,12.70993 l 2.40064,5.05099 1.30319,-3.14617 c 1.90118,-4.58985 8.76954,-11.22108 14.51283,-14.01176 4.15863,-2.02069 6.51446,-2.4303 14,-2.43422 11.17448,-0.006 17.65854,2.51609 23.48371,9.13383 7.57842,8.60955 8.94283,17.49731 8.98541,58.531172 l 0.0309,29.75 h -6.91997 -6.91996 l -0.41653,-34.25 c -0.44234,-36.373122 -0.79296,-39.278412 -5.40109,-44.754862 -3.7471,-4.45318 -7.43347,-5.99514 -14.33263,-5.99514 -9.57172,0 -16.10384,4.33206 -20.93441,13.88353 -3.43282,6.787722 -4.07541,13.515012 -4.07541,42.665692 v 28.45078 h -7 -7 v -32.8185 c 0,-36.340712 -0.51487,-40.281502 -6.09291,-46.634532 -3.51204,-3.99999 -8.09057,-5.75302 -14.88816,-5.70036 -8.72637,0.0676 -15.88196,5.37581 -20.42709,15.15339 -1.96503,4.227212 -2.11075,6.485332 -2.40379,37.250002 l -0.31194,32.75 h -6.93806 -6.93805 z m 268,0 V 72.814808 h 7 7 v 48.000002 48 h -7 -7 z m 255,0 V 72.814808 h 7 7 v 48.000002 48 h -7 -7 z M 54.419907,51.702998 c -2.44013,-0.89575 -3.919619,-2.90839 -5.314336,-7.22942 -0.849557,-2.63205 2.069701,-8.18134 5.008193,-9.52021 3.919457,-1.78582 6.995412,-1.35388 10.32803,1.45034 5.036105,4.2376 4.068558,11.81261 -1.903259,14.90075 -3.291606,1.70216 -4.416909,1.7574 -8.118628,0.39854 z m 471.598613,0.17764 c -4.99588,-2.0727 -7.21051,-7.76627 -4.90812,-12.61821 4.22413,-8.90169 17.29635,-6.22846 17.37135,3.55238 0.049,6.38666 -6.84094,11.39841 -12.46323,9.06583 z m 255,-0.0112 c -7.06521,-2.89174 -7.96213,-13.21295 -1.44124,-16.58503 4.14442,-2.14317 7.38395,-1.80943 10.86451,1.11928 5.31812,4.47489 3.57428,12.9962 -3.13848,15.33628 -3.52667,1.2294 -3.59399,1.23079 -6.28479,0.12947 z"
     style="fill:#02b0ee;fill-opacity:1" />
</svg>
